# xmcd
#
# Track frame offsets:
#	150
#	10587
#	21255
#	30855
#	43197
#	52140
#	63845
#	74857
#	87050
#	99407
#	110595
#	121065
#
# Disc length: 1731 seconds
#
# Revision: 1
# Processed by: cddbd v1.5PL3 Copyright (c) Steve Scherf et al.
# Submitted via: EasyCDDAExtractor 7.0.0.1
#
DISCID=9706c10c
DTITLE=Faron Young - Greatest Hits
DYEAR=2001
DGENRE=
TTITLE0=Live Fast, Love Hard, Die Young
TTITLE1=If You Ain't Loving
TTITLE2=I've Got Five Dollars and It's Saturday Night
TTITLE3=You're Still Mine
TTITLE4=The Comeback
TTITLE5=Country Girl
TTITLE6=Hello Walls
TTITLE7=Goin' Steady
TTITLE8=Sweet Dreams
TTITLE9=All Right
TTITLE10=Riverboat
TTITLE11=Alone With You
EXTD=
EXTT0=
EXTT1=
EXTT2=
EXTT3=
EXTT4=
EXTT5=
EXTT6=
EXTT7=
EXTT8=
EXTT9=
EXTT10=
EXTT11=
PLAYORDER=
